<?xml version="1.0" encoding="UTF-8" standalone="no"?>
<!-- Created with Inkscape (http://www.inkscape.org/) -->

<svg
   xmlns:dc="http://purl.org/dc/elements/1.1/"
   xmlns:cc="http://creativecommons.org/ns#"
   xmlns:rdf="http://www.w3.org/1999/02/22-rdf-syntax-ns#"
   xmlns:svg="http://www.w3.org/2000/svg"
   xmlns="http://www.w3.org/2000/svg"
   xmlns:sodipodi="http://sodipodi.sourceforge.net/DTD/sodipodi-0.dtd"
   xmlns:inkscape="http://www.inkscape.org/namespaces/inkscape"
   width="500"
   height="500"
   id="svg3000"
   version="1.1"
   inkscape:version="0.48.5 r10040"
   sodipodi:docname="ConEmu-green-sq.svg"
   inkscape:export-filename="T:\VCProject\Maximus5\ConEmu-src_help\icons\ConEmu-green-sq-16.png"
   inkscape:export-xdpi="2.8800001"
   inkscape:export-ydpi="2.8800001">
  <defs
     id="defs3002" />
  <sodipodi:namedview
     id="base"
     pagecolor="#ffffff"
     bordercolor="#666666"
     borderopacity="1.0"
     inkscape:pageopacity="0.0"
     inkscape:pageshadow="2"
     inkscape:zoom="1.4"
     inkscape:cx="165.92208"
     inkscape:cy="237.22909"
     inkscape:document-units="px"
     inkscape:current-layer="layer1"
     showgrid="false"
     inkscape:window-width="1920"
     inkscape:window-height="1115"
     inkscape:window-x="-8"
     inkscape:window-y="-8"
     inkscape:window-maximized="1" />
  <metadata
     id="metadata3005">
    <rdf:RDF>
      <cc:Work
         rdf:about="">
        <dc:format>image/svg+xml</dc:format>
        <dc:type
           rdf:resource="http://purl.org/dc/dcmitype/StillImage" />
        <dc:title></dc:title>
      </cc:Work>
    </rdf:RDF>
  </metadata>
  <g
     inkscape:label="Layer 1"
     inkscape:groupmode="layer"
     id="layer1"
     transform="translate(0,-552.36218)">
    <path
       style="fill:#00c800;fill-opacity:1;stroke:#073642;stroke-width:12;stroke-linecap:round;stroke-linejoin:round;stroke-miterlimit:4;stroke-opacity:1;stroke-dasharray:none"
       d="M 87.15625 53.5625 C 64.99625 53.5625 47.15625 71.4025 47.15625 93.5625 L 47.15625 406.4375 C 47.15625 428.5975 64.99625 446.4375 87.15625 446.4375 L 421.4375 446.4375 C 443.5975 446.4375 461.4375 428.5975 461.4375 406.4375 L 461.4375 367.5 L 461.4375 360.5625 L 461.4375 342.5 C 461.4375 336.41078 456.52672 331.5 450.4375 331.5 L 421 331.5 C 414.91078 331.5 410 336.41078 410 342.5 L 410 360.71875 L 410 364.90625 C 410 381.18378 396.90253 394.28125 380.625 394.28125 L 127.96875 394.28125 C 111.69122 394.28125 98.5625 381.18378 98.5625 364.90625 L 98.5625 135.09375 C 98.5625 118.81622 111.69122 105.71875 127.96875 105.71875 L 380.625 105.71875 C 396.90253 105.71875 410 118.81622 410 135.09375 L 410 155 L 410 157.5 C 410 163.58922 414.91078 168.5 421 168.5 L 450.4375 168.5 C 456.52672 168.5 461.4375 163.58922 461.4375 157.5 L 461.4375 155.15625 L 461.4375 132.5 L 461.4375 93.5625 C 461.4375 71.4025 443.5975 53.5625 421.4375 53.5625 L 87.15625 53.5625 z "
       transform="translate(0,552.36218)"
       id="rect3008" />
    <rect
       style="fill:#00c800;fill-opacity:1;stroke:#073642;stroke-width:12;stroke-miterlimit:4;stroke-opacity:1;stroke-dasharray:none"
       id="rect3784"
       width="305.71426"
       height="52.714287"
       x="155.72322"
       y="776.00507"
       ry="10.991379"
       rx="10.991379" />
  </g>
</svg>
